<?xml version="1.0" encoding="utf-8"?>
<!-- Generator: Adobe Illustrator 15.1.0, SVG Export Plug-In . SVG Version: 6.00 Build 0)  -->
<!DOCTYPE svg PUBLIC "-//W3C//DTD SVG 1.1//EN" "http://www.w3.org/Graphics/SVG/1.1/DTD/svg11.dtd">
<svg version="1.1" id="Layer_1" xmlns="http://www.w3.org/2000/svg" xmlns:xlink="http://www.w3.org/1999/xlink" x="0px" y="0px"
	 width="260.577px" height="62.5px" viewBox="0 0 260.577 62.5" style="enable-background:new 0 0 260.577 62.5;"
	 xml:space="preserve">
<style type="text/css">
<![CDATA[
	.st0{fill:none;stroke:#FFFFFF;stroke-miterlimit:10;}
	.st1{fill:#414042;}
]]>
</style>
<g>
	<g>
		<path class="st0" d="M3.292,58.948L3.205,8.914l16.971-0.031l9.064,10.411l9.068-10.443l16.936-0.032l0.088,50.036l-17.627,0.031
			L37.66,33.835l-8.375,9.689l-8.412-9.658l0.047,25.049L3.292,58.948z"/>
		<path class="st1" d="M3.292,61.198c-1.24,0-2.248-1.006-2.25-2.248L0.955,8.918C0.951,7.675,1.957,6.665,3.199,6.664l16.971-0.031
			c0,0,0.004,0,0.006,0c0.65,0,1.266,0.281,1.697,0.771l7.365,8.461l7.367-8.488c0.428-0.492,1.047-0.773,1.697-0.775l16.936-0.032
			c0,0,0.004,0,0.006,0c0.592,0,1.164,0.236,1.586,0.658c0.422,0.42,0.662,0.993,0.664,1.589l0.088,50.035
			c0,0.598-0.234,1.17-0.656,1.594c-0.422,0.422-0.992,0.66-1.59,0.66L37.71,61.136c0,0-0.004,0-0.006,0
			c-1.24,0-2.244-1.004-2.25-2.246l-0.033-19.021l-4.436,5.13c-0.428,0.492-1.045,0.776-1.695,0.776c-0.004,0-0.006,0-0.006,0
			c-0.65,0-1.27-0.281-1.697-0.773l-4.449-5.112l0.031,19.024c0.004,0.598-0.234,1.168-0.656,1.594
			c-0.422,0.422-0.992,0.658-1.59,0.658L3.298,61.198C3.294,61.198,3.294,61.198,3.292,61.198z M5.457,11.159l0.082,45.533
			l13.125-0.021L18.623,33.87c0-0.94,0.58-1.779,1.459-2.112c0.879-0.328,1.873-0.079,2.49,0.632l6.707,7.701l6.682-7.728
			c0.613-0.711,1.604-0.966,2.482-0.638c0.881,0.328,1.465,1.166,1.467,2.105l0.041,22.799l13.125-0.02l-0.078-45.536l-13.662,0.023
			l-8.393,9.671c-0.432,0.492-1.047,0.775-1.699,0.775c-0.004,0-0.004,0-0.004,0c-0.65,0-1.268-0.281-1.695-0.772l-8.395-9.636
			L5.457,11.159z"/>
	</g>
	<g>
		<path class="st0" d="M105.843,8.729l0.029,16.724c3.779-0.296,6.65-1.905,8.613-4.837c1.959-2.933,2.936-6.899,2.926-11.909
			l18.023-0.03c0.012,6.101-0.779,11.128-2.369,15.086c-1.586,3.961-4.072,7.245-7.453,9.849
			c6.828,5.19,10.605,13.558,11.322,25.099l-19.367,0.029c-0.59-11.928-4.482-18.01-11.67-18.235l0.033,18.259l-17.596,0.029
			L88.242,8.76L105.843,8.729z"/>
		<path class="st1" d="M88.335,61.042c-1.242,0-2.25-1.002-2.25-2.244L85.992,8.765c0-0.598,0.236-1.169,0.656-1.593
			C87.07,6.75,87.64,6.51,88.238,6.51l17.6-0.03c0,0,0.002,0,0.006,0c1.238,0,2.244,1.003,2.25,2.245l0.023,14.036
			c1.887-0.589,3.369-1.714,4.5-3.396c1.699-2.542,2.555-6.126,2.545-10.652c0-0.598,0.238-1.169,0.656-1.593
			c0.422-0.422,0.994-0.662,1.592-0.662l18.025-0.03l0,0c1.242,0,2.25,1.003,2.25,2.245c0.012,6.359-0.84,11.719-2.531,15.931
			c-1.383,3.455-3.418,6.47-6.072,8.995c6.023,5.638,9.418,14.022,10.098,24.972c0.039,0.619-0.178,1.229-0.604,1.682
			c-0.424,0.451-1.016,0.709-1.637,0.709l-19.369,0.029h-0.002c-1.201,0-2.189-0.939-2.248-2.139
			c-0.582-11.811-4.379-14.922-7.166-15.766l0.027,15.672c0,0.598-0.234,1.17-0.656,1.594c-0.422,0.422-0.994,0.662-1.592,0.662
			l-17.596,0.029C88.335,61.042,88.335,61.042,88.335,61.042z M90.498,11.006L90.58,56.54l13.096-0.023l-0.027-16.007
			c-0.002-0.612,0.244-1.195,0.684-1.62c0.439-0.422,1.004-0.674,1.637-0.633c8.061,0.249,12.666,6.381,13.699,18.23l14.822-0.023
			c-1.014-9.585-4.457-16.666-10.24-21.061c-0.557-0.425-0.887-1.084-0.887-1.785c-0.004-0.701,0.322-1.362,0.875-1.79
			c3.047-2.347,5.314-5.341,6.742-8.903c1.277-3.185,2.006-7.213,2.17-11.994l-13.549,0.022c-0.264,4.419-1.354,8.081-3.246,10.914
			c-2.355,3.519-5.828,5.479-10.311,5.829c-0.621,0.044-1.238-0.166-1.699-0.591c-0.459-0.425-0.723-1.022-0.723-1.649
			l-0.027-14.473L90.498,11.006z"/>
	</g>
	<g>
		<path class="st0" d="M171.884,8.615l20.088-0.035c8.871-0.018,15.727,2.426,20.57,7.325c4.84,4.9,7.266,10.808,7.277,17.741
			c0.008,4.414-1.084,8.589-3.273,12.515c-2.188,3.929-5.402,6.981-9.641,9.16c-4.236,2.188-9.357,3.283-15.369,3.293l-19.559,0.035
			L171.884,8.615z M189.515,27.731l0.018,11.741l0.559-0.003c2.666-0.006,4.598-0.472,5.787-1.403
			c1.186-0.932,1.781-2.458,1.775-4.58c-0.004-3.848-2.25-5.766-6.727-5.76L189.515,27.731z"/>
		<path class="st1" d="M171.978,60.899c-1.242,0-2.248-1.006-2.25-2.248l-0.094-50.032c0-0.598,0.236-1.169,0.658-1.594
			c0.42-0.422,0.994-0.66,1.588-0.66l20.086-0.035c9.508,0,16.934,2.689,22.176,7.993c5.246,5.313,7.912,11.812,7.928,19.318
			c0.008,4.782-1.188,9.364-3.561,13.615c-2.396,4.304-5.955,7.691-10.576,10.068c-4.529,2.338-10.043,3.529-16.395,3.539
			l-19.559,0.035C171.98,60.899,171.98,60.899,171.978,60.899z M174.14,10.86l0.082,45.533l17.311-0.029
			c5.625-0.01,10.451-1.031,14.338-3.04c3.877-1.992,6.725-4.693,8.711-8.259c1.992-3.571,2.996-7.412,2.988-11.415
			c-0.012-6.372-2.18-11.658-6.627-16.166c-4.365-4.415-10.717-6.654-18.877-6.654L174.14,10.86z M189.533,41.723
			c-0.596,0-1.164-0.237-1.586-0.656c-0.424-0.422-0.664-0.993-0.664-1.591l-0.018-11.74c0-1.242,1.002-2.25,2.244-2.254
			l1.412-0.005h0.025c5.688,0,8.951,2.918,8.957,8.007c0.008,2.834-0.879,4.973-2.637,6.35c-1.609,1.266-3.955,1.881-7.172,1.887
			l-0.555,0.003C189.541,41.723,189.535,41.723,189.533,41.723z M191.771,30.003l0.008,7.132c1.615-0.176,2.377-0.577,2.711-0.841
			c0.609-0.478,0.916-1.421,0.914-2.805C195.404,31.837,195.105,30.223,191.771,30.003z"/>
	</g>
	<g>
		<path class="st0" d="M235.628,58.849c-5.326,0.008-9.727-1.586-13.184-4.798c-3.463-3.205-5.195-7.392-5.203-12.548
			c-0.01-5.159,1.682-9.367,5.082-12.613c3.408-3.249,7.82-4.875,13.236-4.884c5.459-0.009,9.906,1.6,13.33,4.834
			c3.42,3.234,5.143,7.437,5.15,12.596c0.01,5.139-1.695,9.328-5.105,12.557C245.525,57.22,241.085,58.837,235.628,58.849z
			 M235.578,36.561c-1.309,0.003-2.375,0.422-3.193,1.269c-0.822,0.844-1.227,1.928-1.227,3.261
			c0.006,1.336,0.412,2.414,1.238,3.243c0.818,0.829,1.887,1.239,3.199,1.239c1.334-0.003,2.414-0.419,3.244-1.251
			c0.826-0.832,1.244-1.913,1.238-3.249c-0.002-1.354-0.422-2.446-1.25-3.278C237.996,36.968,236.912,36.558,235.578,36.561z"/>
		<path class="st1" d="M235.583,61.099c-5.877,0-10.812-1.816-14.672-5.4c-3.916-3.625-5.912-8.4-5.92-14.192
			c-0.01-5.78,1.936-10.574,5.779-14.245c3.82-3.643,8.795-5.496,14.787-5.505c6.061,0,11.051,1.834,14.877,5.449
			c3.875,3.665,5.848,8.453,5.855,14.228c0.01,5.757-1.945,10.535-5.809,14.193c-3.824,3.617-8.822,5.457-14.852,5.473
			C235.63,61.099,235.587,61.099,235.583,61.099z M235.605,26.256c-4.904,0.009-8.729,1.403-11.725,4.262
			c-2.963,2.825-4.398,6.418-4.389,10.979c0.008,4.553,1.473,8.118,4.479,10.901c3.047,2.825,6.844,4.2,11.613,4.2v2.25l0.039-2.25
			c4.912-0.012,8.762-1.4,11.766-4.241c2.971-2.812,4.412-6.384,4.402-10.916c-0.008-4.556-1.461-8.143-4.447-10.967
			C244.341,27.636,240.5,26.256,235.605,26.256z M235.601,47.822c-1.922,0-3.576-0.662-4.807-1.913
			c-1.242-1.242-1.879-2.868-1.887-4.813c0-1.942,0.627-3.565,1.863-4.837c1.227-1.269,2.891-1.945,4.805-1.948
			c0.002,0,0.012,0,0.014,0c1.916,0,3.584,0.653,4.826,1.893c1.244,1.245,1.906,2.927,1.912,4.86
			c0.01,1.916-0.646,3.592-1.893,4.843C239.191,47.157,237.517,47.819,235.601,47.822z M235.589,36.561l-0.006,2.25
			c-0.904,0.003-1.32,0.311-1.582,0.583c-0.277,0.284-0.594,0.729-0.594,1.696c0.002,0.949,0.312,1.383,0.582,1.652
			c0.27,0.275,0.686,0.58,1.598,0.58c0.951-0.003,1.389-0.316,1.66-0.589c0.273-0.272,0.584-0.712,0.58-1.655
			c0-0.987-0.34-1.438-0.592-1.693c-0.246-0.246-0.688-0.574-1.646-0.574V36.561z"/>
	</g>
</g>
</svg>
