<svg version="1.1" id="Layer_1" xmlns="http://www.w3.org/2000/svg" xmlns:xlink="http://www.w3.org/1999/xlink" x="0px" y="0px"
	 width="260.578px" height="62.5px" viewBox="0 0 260.578 62.5" style="enable-background:new 0 0 260.578 62.5;"
	 xml:space="preserve">
<style type="text/css">
<![CDATA[
	.st0{fill:#3FB0B2;stroke:#414042;stroke-miterlimit:10;}
	.st1{fill:#414042;stroke:#414042;stroke-miterlimit:10;}
	.st2{fill:#F9ED32;stroke:#414042;stroke-miterlimit:10;}
	.st3{fill:#ECCED8;stroke:#414042;stroke-miterlimit:10;}
]]>
</style>
<path class="st1" d="M89.03,57.807l-3.199-0.023c0.151-17.911-13.724-29.863-15.216-30.832l0.562-0.871l0.541-2.1
	C73.425,24.419,89.202,37.398,89.03,57.807z"/>
<g>
	<path class="st2" d="M71.016,12.694c3.181,3.605,3.653,8.92,1.06,11.877c-2.601,2.966-7.271,2.443-10.463-1.161
		c-3.186-3.601-3.655-8.915-1.056-11.874C63.151,8.578,67.828,9.086,71.016,12.694z"/>
	<path class="st1" d="M68.999,27.998c-2.993,0.483-6.202-0.841-8.579-3.524c-3.761-4.252-4.221-10.395-1.062-13.994
		c1.123-1.281,2.604-2.101,4.279-2.367c2.992-0.48,6.203,0.835,8.577,3.522c3.752,4.249,4.218,10.394,1.06,13.991
		C72.154,26.91,70.675,27.731,68.999,27.998z M64.14,11.269c-0.942,0.15-1.744,0.596-2.385,1.321
		c-2.046,2.331-1.562,6.798,1.052,9.76c2.444,2.757,6.154,3.341,8.063,1.172c2.045-2.333,1.563-6.804-1.054-9.767
		C68.196,11.92,66.02,10.966,64.14,11.269z"/>
</g>
<g>
	<path class="st1" d="M139.556,58.001l-3.188,0.199c-1.298-20.562,17.234-35.109,18.569-35.529l0.962,3.047
		C153.966,26.843,138.453,40.443,139.556,58.001z"/>
	<g>
		<path class="st0" d="M154.386,12.068c-3.369,3.438-4.122,8.716-1.686,11.808c2.44,3.098,7.131,2.822,10.51-0.611
			c3.365-3.43,4.119-8.709,1.679-11.805C162.453,8.376,157.757,8.634,154.386,12.068z"/>
		<path class="st1" d="M155.589,27.461L155.589,27.461c-1.656-0.357-3.09-1.255-4.146-2.596c-2.956-3.756-2.171-9.87,1.796-13.917
			c2.514-2.559,5.782-3.705,8.754-3.068c1.657,0.359,3.096,1.25,4.148,2.594c2.966,3.756,2.18,9.867-1.793,13.91
			C161.826,26.945,158.556,28.097,155.589,27.461z M161.324,11.009c-1.859-0.399-4.078,0.434-5.798,2.18
			c-2.771,2.822-3.485,7.265-1.569,9.699c1.793,2.268,5.533,1.879,8.114-0.747c2.769-2.815,3.481-7.254,1.563-9.685
			C163.033,11.694,162.257,11.207,161.324,11.009z"/>
	</g>
	<path class="st1" d="M248.767,51.074l2.348,2.171c11.396-12.313,4.268-33.194,3.5-34.363l-2.672,1.758
		C252.734,22.731,258.123,40.967,248.767,51.074z"/>
	<g>
		<path class="st3" d="M256.3,6.984c2.498,4.116,2.027,9.427-1.049,11.883c-3.08,2.458-7.588,1.122-10.09-2.991
			c-2.5-4.105-2.031-9.414,1.051-11.875C249.289,1.55,253.8,2.874,256.3,6.984z"/>
		<path class="st1" d="M243.796,16.71c-2.945-4.843-2.324-10.974,1.418-13.956c1.332-1.066,2.94-1.608,4.631-1.582
			c3.039,0.061,5.959,1.924,7.822,4.982c2.944,4.844,2.317,10.978-1.418,13.961c-1.33,1.062-2.931,1.614-4.629,1.582l0,0
			C248.591,21.645,245.671,19.778,243.796,16.71z M247.208,5.258c-2.422,1.929-2.738,6.414-0.687,9.786
			c1.916,3.144,5.474,4.373,7.731,2.572c2.42-1.934,2.736-6.422,0.681-9.801c-1.274-2.091-3.244-3.403-5.146-3.444
			C248.832,4.356,247.964,4.652,247.208,5.258z"/>
	</g>
</g>
</svg>
