<svg version="1.1" id="Layer_1" xmlns="http://www.w3.org/2000/svg" xmlns:xlink="http://www.w3.org/1999/xlink" x="0px" y="0px"
	 width="260.578px" height="62.5px" viewBox="0 0 260.578 62.5" style="enable-background:new 0 0 260.578 62.5;"
	 xml:space="preserve">
<style type="text/css">
<![CDATA[
	.st0{fill:#3FB0B2;stroke:#414042;stroke-miterlimit:10;}
	.st1{fill:#414042;stroke:#414042;stroke-miterlimit:10;}
]]>
</style>
<g>
	<path class="st1" d="M139.556,58.001l-3.188,0.199c-1.298-20.562,17.234-35.109,18.569-35.529l0.962,3.047
		C153.966,26.843,138.453,40.443,139.556,58.001z"/>
	<g>
		<path class="st0" d="M154.386,12.068c-3.369,3.438-4.122,8.716-1.686,11.808c2.44,3.098,7.131,2.822,10.51-0.611
			c3.365-3.43,4.119-8.709,1.679-11.805C162.453,8.376,157.757,8.634,154.386,12.068z"/>
		<path class="st1" d="M155.589,27.461L155.589,27.461c-1.656-0.357-3.09-1.255-4.146-2.596c-2.956-3.756-2.171-9.87,1.796-13.917
			c2.514-2.559,5.782-3.705,8.754-3.068c1.657,0.359,3.096,1.25,4.148,2.594c2.966,3.756,2.18,9.867-1.793,13.91
			C161.826,26.945,158.556,28.097,155.589,27.461z M161.324,11.009c-1.859-0.399-4.078,0.434-5.798,2.18
			c-2.771,2.822-3.485,7.265-1.569,9.699c1.793,2.268,5.533,1.879,8.114-0.747c2.769-2.815,3.481-7.254,1.563-9.685
			C163.033,11.694,162.257,11.207,161.324,11.009z"/>
	</g>
</g>
</svg>
