<svg version="1.1" id="Layer_1" xmlns="http://www.w3.org/2000/svg" xmlns:xlink="http://www.w3.org/1999/xlink" x="0px" y="0px"
	 width="260.578px" height="62.5px" viewBox="0 0 260.578 62.5" style="enable-background:new 0 0 260.578 62.5;"
	 xml:space="preserve">
<style type="text/css">
<![CDATA[
	.st0{fill:#414042;stroke:#414042;stroke-miterlimit:10;}
	.st1{fill:#ECCED8;stroke:#414042;stroke-miterlimit:10;}
]]>
</style>
<g>
	<path class="st0" d="M248.767,51.074l2.348,2.171c11.396-12.313,4.268-33.194,3.5-34.363l-2.672,1.758
		C252.734,22.731,258.123,40.967,248.767,51.074z"/>
	<g>
		<path class="st1" d="M256.3,6.984c2.498,4.116,2.027,9.427-1.049,11.883c-3.08,2.458-7.588,1.122-10.09-2.991
			c-2.5-4.105-2.031-9.414,1.051-11.875C249.289,1.55,253.8,2.874,256.3,6.984z"/>
		<path class="st0" d="M243.796,16.71c-2.945-4.843-2.324-10.974,1.418-13.956c1.332-1.066,2.94-1.608,4.631-1.582
			c3.039,0.061,5.959,1.924,7.822,4.982c2.944,4.844,2.317,10.978-1.418,13.961c-1.33,1.062-2.931,1.614-4.629,1.582l0,0
			C248.591,21.645,245.671,19.778,243.796,16.71z M247.208,5.258c-2.422,1.929-2.738,6.414-0.687,9.786
			c1.916,3.144,5.474,4.373,7.731,2.572c2.42-1.934,2.736-6.422,0.681-9.801c-1.274-2.091-3.244-3.403-5.146-3.444
			C248.832,4.356,247.964,4.652,247.208,5.258z"/>
	</g>
</g>
</svg>
