<svg version="1.1" id="Layer_1" xmlns="http://www.w3.org/2000/svg" xmlns:xlink="http://www.w3.org/1999/xlink" x="0px" y="0px"
	 width="260.578px" height="62.5px" viewBox="0 0 260.578 62.5" style="enable-background:new 0 0 260.578 62.5;"
	 xml:space="preserve">
<style type="text/css">
<![CDATA[
	.st0{fill:#414042;stroke:#414042;stroke-miterlimit:10;}
	.st1{fill:#F9ED32;stroke:#414042;stroke-miterlimit:10;}
]]>
</style>
<path class="st0" d="M89.03,57.807l-3.199-0.023c0.151-17.911-13.724-29.863-15.216-30.832l0.562-0.871l0.541-2.1
	C73.425,24.419,89.202,37.398,89.03,57.807z"/>
<g>
	<path class="st1" d="M71.016,12.694c3.181,3.605,3.653,8.92,1.06,11.877c-2.601,2.966-7.271,2.443-10.463-1.161
		c-3.186-3.601-3.655-8.915-1.056-11.874C63.151,8.578,67.828,9.086,71.016,12.694z"/>
	<path class="st0" d="M68.999,27.998c-2.993,0.483-6.202-0.841-8.579-3.524c-3.761-4.252-4.221-10.395-1.062-13.994
		c1.123-1.281,2.604-2.101,4.279-2.367c2.992-0.48,6.203,0.835,8.577,3.522c3.752,4.249,4.218,10.394,1.06,13.991
		C72.154,26.91,70.675,27.731,68.999,27.998z M64.14,11.269c-0.942,0.15-1.744,0.596-2.385,1.321
		c-2.046,2.331-1.562,6.798,1.052,9.76c2.444,2.757,6.154,3.341,8.063,1.172c2.045-2.333,1.563-6.804-1.054-9.767
		C68.196,11.92,66.02,10.966,64.14,11.269z"/>
</g>
</svg>
