<svg version="1.1" id="Layer_1" xmlns="http://www.w3.org/2000/svg" xmlns:xlink="http://www.w3.org/1999/xlink" x="0px" y="0px"
	 width="260.578px" height="62.5px" viewBox="0 0 260.578 62.5" style="enable-background:new 0 0 260.578 62.5;"
	 xml:space="preserve">
<style type="text/css">
  .st1 {
    fill: #fff;
    stroke:#414042;
    stroke-miterlimit:10;
    stroke-dasharray: 500;
    stroke-dashoffset: 500;
    animation: dash 2s linear forwards;
  }
  
  @keyframes dash {
    0% {
      stroke-dashoffset: 500;
      fill: #fff;
    }
    50% {
      stroke-dashoffset: 0;
    }
    100% {
      stroke-dashoffset: 0;
      fill:#414042;
    }
  }
</style>
<g>
	<g>
		<path class="st1" d="M3.292,61.198c-1.24,0-2.248-1.007-2.25-2.248L0.955,8.918C0.951,7.675,1.957,6.665,3.199,6.664L20.17,6.633
			c0,0,0.004,0,0.006,0c0.65,0,1.266,0.281,1.697,0.771l7.365,8.461l7.367-8.488c0.428-0.492,1.047-0.773,1.697-0.775L55.238,6.57
			c0,0,0.004,0,0.006,0c0.592,0,1.164,0.236,1.586,0.658c0.422,0.42,0.662,0.993,0.664,1.589l0.088,50.035
			c0,0.599-0.234,1.17-0.656,1.594c-0.422,0.423-0.992,0.66-1.59,0.66l-17.626,0.03c0,0-0.004,0-0.006,0
			c-1.24,0-2.244-1.004-2.25-2.245l-0.033-19.021l-4.436,5.13c-0.428,0.492-1.045,0.776-1.695,0.776c-0.004,0-0.006,0-0.006,0
			c-0.65,0-1.27-0.281-1.697-0.773l-4.449-5.111l0.031,19.023c0.004,0.598-0.234,1.168-0.656,1.594
			c-0.422,0.422-0.992,0.658-1.59,0.658L3.298,61.198C3.294,61.198,3.294,61.198,3.292,61.198z M5.457,11.159l0.082,45.532
			l13.125-0.021L18.623,33.87c0-0.94,0.58-1.779,1.459-2.112c0.879-0.328,1.873-0.079,2.49,0.633l6.707,7.7l6.682-7.728
			c0.613-0.711,1.604-0.966,2.482-0.638c0.881,0.328,1.465,1.166,1.467,2.105l0.041,22.799l13.125-0.02l-0.078-45.536l-13.662,0.023
			l-8.393,9.671c-0.432,0.492-1.047,0.775-1.699,0.775c-0.004,0-0.004,0-0.004,0c-0.65,0-1.268-0.281-1.695-0.772l-8.395-9.636
			L5.457,11.159z"/>
	</g>
	<g>
		<path class="st1" d="M88.335,61.042c-1.242,0-2.25-1.002-2.25-2.244L85.992,8.765c0-0.598,0.236-1.169,0.656-1.593
			C87.07,6.75,87.64,6.51,88.238,6.51l17.6-0.03c0,0,0.002,0,0.006,0c1.238,0,2.244,1.003,2.25,2.245l0.023,14.036
			c1.887-0.589,3.369-1.714,4.5-3.396c1.699-2.542,2.555-6.126,2.545-10.652c0-0.598,0.238-1.169,0.656-1.593
			c0.422-0.422,0.994-0.662,1.592-0.662l18.025-0.03l0,0c1.242,0,2.25,1.003,2.25,2.245c0.012,6.359-0.84,11.719-2.531,15.931
			c-1.383,3.455-3.418,6.47-6.072,8.996c6.023,5.637,9.417,14.021,10.098,24.971c0.038,0.619-0.179,1.229-0.604,1.683
			c-0.424,0.451-1.016,0.709-1.637,0.709l-19.369,0.029h-0.002c-1.201,0-2.189-0.939-2.248-2.14
			c-0.582-11.811-4.379-14.922-7.166-15.766l0.027,15.672c0,0.598-0.234,1.17-0.656,1.594c-0.422,0.422-0.994,0.662-1.592,0.662
			l-17.596,0.029C88.335,61.042,88.335,61.042,88.335,61.042z M90.498,11.006L90.58,56.54l13.096-0.022l-0.027-16.008
			c-0.002-0.611,0.244-1.195,0.684-1.619c0.439-0.423,1.004-0.675,1.637-0.634c8.061,0.249,12.666,6.382,13.699,18.229l14.823-0.022
			c-1.015-9.585-4.458-16.666-10.241-21.062c-0.557-0.424-0.887-1.084-0.887-1.784c-0.004-0.701,0.322-1.362,0.875-1.79
			c3.047-2.347,5.314-5.341,6.742-8.903c1.276-3.185,2.006-7.213,2.17-11.994l-13.549,0.022c-0.264,4.419-1.354,8.081-3.246,10.914
			c-2.355,3.519-5.828,5.479-10.311,5.829c-0.621,0.044-1.238-0.166-1.699-0.591c-0.459-0.425-0.723-1.022-0.723-1.649
			l-0.027-14.473L90.498,11.006z"/>
	</g>
	<g>
		<path class="st1" d="M171.978,60.898c-1.242,0-2.248-1.006-2.25-2.248l-0.094-50.031c0-0.598,0.236-1.169,0.658-1.594
			c0.42-0.422,0.994-0.66,1.588-0.66l20.086-0.035c9.508,0,16.934,2.689,22.176,7.993c5.246,5.312,7.912,11.812,7.928,19.317
			c0.008,4.782-1.188,9.364-3.561,13.615c-2.396,4.305-5.955,7.691-10.576,10.068c-4.529,2.338-10.043,3.529-16.395,3.539
			L171.978,60.898C171.98,60.898,171.98,60.898,171.978,60.898z M174.14,10.86l0.082,45.533l17.311-0.028
			c5.625-0.011,10.451-1.031,14.338-3.04c3.877-1.992,6.726-4.693,8.711-8.26c1.992-3.57,2.996-7.412,2.988-11.414
			c-0.012-6.373-2.18-11.658-6.627-16.167c-4.365-4.415-10.717-6.654-18.877-6.654L174.14,10.86z M189.533,41.723
			c-0.596,0-1.164-0.236-1.586-0.656c-0.424-0.422-0.664-0.992-0.664-1.59l-0.018-11.741c0-1.242,1.002-2.25,2.244-2.254
			l1.412-0.005h0.024c5.688,0,8.951,2.918,8.957,8.007c0.009,2.834-0.879,4.973-2.637,6.35c-1.608,1.266-3.955,1.881-7.172,1.887
			l-0.556,0.004C189.541,41.723,189.535,41.723,189.533,41.723z M191.771,30.003l0.008,7.132c1.615-0.176,2.377-0.576,2.711-0.841
			c0.609-0.478,0.916-1.421,0.914-2.805C195.404,31.837,195.105,30.223,191.771,30.003z"/>
	</g>
	<g>
		<path class="st1" d="M235.583,61.1c-5.877,0-10.812-1.816-14.672-5.4c-3.916-3.625-5.912-8.4-5.92-14.192
			c-0.011-5.78,1.936-10.574,5.778-14.245c3.819-3.643,8.795-5.496,14.787-5.505c6.062,0,11.051,1.834,14.877,5.449
			c3.875,3.665,5.849,8.453,5.854,14.228c0.01,5.758-1.945,10.535-5.809,14.193c-3.824,3.617-8.822,5.457-14.852,5.473
			C235.63,61.1,235.587,61.1,235.583,61.1z M235.605,26.256c-4.904,0.009-8.729,1.403-11.725,4.262
			c-2.963,2.825-4.398,6.417-4.389,10.979c0.008,4.553,1.473,8.118,4.479,10.901c3.047,2.824,6.844,4.199,11.613,4.199v2.25
			l0.039-2.25c4.912-0.012,8.762-1.399,11.766-4.24c2.971-2.812,4.412-6.385,4.402-10.916c-0.008-4.557-1.461-8.144-4.447-10.967
			C244.341,27.636,240.5,26.256,235.605,26.256z M235.601,47.822c-1.922,0-3.576-0.662-4.807-1.913
			c-1.242-1.242-1.879-2.868-1.887-4.813c0-1.941,0.627-3.564,1.862-4.837c1.228-1.269,2.892-1.944,4.806-1.948
			c0.002,0,0.012,0,0.014,0c1.916,0,3.584,0.653,4.826,1.894c1.244,1.245,1.905,2.927,1.912,4.86
			c0.01,1.916-0.646,3.592-1.894,4.843C239.191,47.157,237.517,47.818,235.601,47.822z M235.589,36.561l-0.006,2.25
			c-0.904,0.004-1.32,0.312-1.582,0.584c-0.277,0.283-0.594,0.729-0.594,1.695c0.002,0.949,0.312,1.383,0.582,1.652
			c0.27,0.275,0.686,0.58,1.598,0.58c0.951-0.004,1.389-0.316,1.66-0.59c0.272-0.271,0.584-0.711,0.58-1.654
			c0-0.987-0.341-1.438-0.593-1.693c-0.245-0.246-0.688-0.574-1.646-0.574V36.561L235.589,36.561z"/>
	</g>
</g>
</svg>
